<?xml version="1.0" encoding="utf-8"?>
<!-- Generator: Adobe Illustrator 23.1.0, SVG Export Plug-In . SVG Version: 6.00 Build 0)  -->
<svg version="1.1"
	 id="svg5560" inkscape:version="0.91 r13725" sodipodi:docname="FIFA Logo (2013).svg" xmlns:cc="http://creativecommons.org/ns#" xmlns:dc="http://purl.org/dc/elements/1.1/" xmlns:inkscape="http://www.inkscape.org/namespaces/inkscape" xmlns:rdf="http://www.w3.org/1999/02/22-rdf-syntax-ns#" xmlns:sodipodi="http://sodipodi.sourceforge.net/DTD/sodipodi-0.dtd" xmlns:svg="http://www.w3.org/2000/svg"
	 xmlns="http://www.w3.org/2000/svg" xmlns:xlink="http://www.w3.org/1999/xlink" x="0px" y="0px" viewBox="0 0 756 248.6"
	 style="enable-background:new 0 0 756 248.6;" xml:space="preserve">
<style type="text/css">
	.st0{fill:#005390;}
</style>
<g>
	<polygon class="st0" points="214.2,247.8 291.6,247.8 291.6,-0.2 214.3,-0.2 	"/>
	<polygon class="st0" points="0,248 78.3,248 78.3,158.3 132.7,158.3 154,104.1 78.3,104.1 78.3,53.8 170.2,53.8 190.3,-0.2 0,-0.2 
			"/>
	<path class="st0" d="M666.7-0.2h-80.4l-89.1,248H572l9.6-33.3h87.3l10.1,33.3h77L666.7-0.2z M595.3,167l29.9-103.4L656.1,167H595.3
		z"/>
	<polygon class="st0" points="423.3,104 423.3,53.7 515.2,53.7 535.5,-0.3 345.1,-0.3 345.1,-0.2 345.1,247.8 423.5,247.8 
		423.5,158.2 477.7,158.2 499,104 	"/>
</g>
</svg>
